# xmcd
#
# Track frame offsets:
#	150
#	20229
#	31529
#	50465
#	66906
#	79781
#	99065
#	113316
#	132519
#	142138
#	159192
#	177432
#	192096
#	206592
#	226066
#
# Disc length: 3239 seconds
#
# Revision: 0
# Processed by: cddbd v1.5.1PL0 Copyright (c) Steve Scherf et al.
# Submitted via: dBpowerAMP V4.0
#
DISCID=bc0ca50f
DTITLE=聖經-舊約 - Disc 44
DYEAR=1900
DGENRE=
TTITLE0=箴言第1章
TTITLE1=箴言第2章
TTITLE2=箴言第3章
TTITLE3=箴言第4章
TTITLE4=箴言第5章
TTITLE5=箴言第6章
TTITLE6=箴言第7章
TTITLE7=箴言第8章
TTITLE8=箴言第9章
TTITLE9=箴言第10章
TTITLE10=箴言第11章
TTITLE11=箴言第12章
TTITLE12=箴言第13章
TTITLE13=箴言第14章
TTITLE14=箴言第15章
EXTD=
EXTT0=
EXTT1=
EXTT2=
EXTT3=
EXTT4=
EXTT5=
EXTT6=
EXTT7=
EXTT8=
EXTT9=
EXTT10=
EXTT11=
EXTT12=
EXTT13=
EXTT14=
PLAYORDER=
